<?xml version="1.0" encoding="utf-8"?>
<!-- Generator: Adobe Illustrator 23.0.0, SVG Export Plug-In . SVG Version: 6.00 Build 0)  -->
<svg version="1.1" xmlns="http://www.w3.org/2000/svg" xmlns:xlink="http://www.w3.org/1999/xlink" x="0px" y="0px"
	 viewBox="0 0 512 512" style="enable-background:new 0 0 512 512;" xml:space="preserve">
<style type="text/css">
	.st0{fill:#FEC771;}
	.st1{fill:#424D63;}
	.st2{fill:#FAFAFF;}
	.st3{fill:#936944;}
</style>
<g id="Layer_2">
	<rect class="st0" width="512" height="512"/>
</g>
<g id="Layer_1">
	<path class="st1" d="M275.6,10H236c-55.2,0-100,44.8-100,100v40l240,0.4v-40.1C376,54.9,331.1,10,275.6,10z"/>
	<path class="st2" d="M355.8,315.3L316,279.5c-0.3,0.2-0.6,0.3-0.8,0.5l-119.5-0.3c-0.2-0.1-0.3-0.2-0.5-0.3l-40,35.9
		c-49.8,0-110.2,40.4-110.2,90.3V502h421v-96.3C466,355.8,405.6,315.3,355.8,315.3z"/>
	<path class="st3" d="M339,96.9c-19.4,19.9-44,33.1-83.5,33.1s-64.1-13.2-83.5-33.1L136,149.8V176c0,44.2,23.7,82.8,59.2,103.6
		l0.2-0.2l0.3,0.4l59.9,95.8l59.6-95.4l0.5-0.8l0.4,0.3C351.9,259,376,220.3,376,176c0-2.5,0-13.5,0-25.8L339,96.9z"/>
	<path class="st1" d="M285.6,436l13.2-38l0.3-0.6l-43.5-21.8L213,397v0l12.5,39L210,500.1v1.9h90.7L285.6,436z"/>
	<path d="M305.8,180c5.5,0,10-4.5,10-10s-4.5-10-10-10c-5.5,0-10,4.5-10,10S300.3,180,305.8,180z"/>
	<path d="M205.8,180c5.5,0,10-4.5,10-10s-4.5-10-10-10c-5.5,0-10,4.5-10,10S200.3,180,205.8,180z"/>
	<path d="M229.1,248.7c8.4,4,17.4,6,26.7,6c9.1,0,18-1.9,26.2-5.7c5-2.3,7.2-8.2,4.9-13.3c-2.3-5-8.2-7.2-13.3-4.9
		c-5.6,2.6-11.6,3.9-17.9,3.9c-6.4,0-12.5-1.4-18.2-4.1c-5-2.4-11-0.2-13.3,4.8S224.1,246.4,229.1,248.7z"/>
	<path d="M476,405.8c0-55-62.6-98.1-116.2-100.2L332.5,281c33.3-24.3,53.5-63.4,53.5-105v-66C386,49.3,336.5,0,275.8,0h-40.1
		C174.9,0,126,49.2,126,110v66c0,41.5,20,80.5,52.9,104.8l-27.6,24.8C97.7,307.7,35,350.7,35,405.8V502c0,5.5,4.5,10,10,10h421
		c5.5,0,10-4.5,10-10V405.8z M233.6,446h44.3l10.5,46h-65.5L233.6,446z M278.8,426H233l-7.7-23.9l30.5-15.2l31.1,15.6L278.8,426z
		 M255.8,356.8L221,301.2c11.3,3.1,23,4.8,34.9,4.8c11.7,0,23.4-1.6,34.6-4.7L255.8,356.8z M270.1,371.7l48-76.8l25.9,23.3l-32.9,74
		L270.1,371.7z M235.6,20h40c49.8,0,90.4,40.4,90.4,90v8.3l-19.5-28.1c-0.1-0.2-0.3-0.4-0.4-0.5c-4.6-4-10.6-3.4-14.2,0.2
		C311.5,110.7,288,120,255.6,120c-32.9,0-56.6-9.5-77.1-30.9c-0.1-0.1-0.3-0.3-0.5-0.4c-5.2-3.4-11.2-1.7-14.1,2.6L146,117.4V110
		C146,60.4,186.2,20,235.6,20z M146,176v-23.1l27.8-40.7c22.3,18.9,48.5,27.8,81.8,27.8c33.3,0,59.6-8.9,81.8-27.9l28.6,41.2V176
		c0,59.9-48.9,110-110.4,110C194.4,286,146,236,146,176z M193.5,294.8l48,76.8l-41,20.5l-32.9-74L193.5,294.8z M55,405.8
		c0-41.2,50.1-76.8,93.8-80l37.4,84.1c1.7,3.8,5.7,6.3,10.2,5.9c1.2-0.1,2.4-0.5,3.5-1.1l7-3.5l8.1,25.3l-13,55.6H55V405.8z
		 M456,492H308.5l-12.6-55.4l8.7-25.1l6.5,3.3c4.1,2,9.2,1.1,12.3-2.7c0.6-0.7,1-1.5,1.3-2.3l37.4-84c43.8,3.2,93.8,38.8,93.8,80
		V492z"/>
	<path d="M385.8,446h-40c-5.5,0-10,4.5-10,10s4.5,10,10,10h40c5.5,0,10-4.5,10-10S391.3,446,385.8,446z"/>
	<path d="M426,466c5.5,0,10-4.5,10-10s-4.5-10-10-10s-10,4.5-10,10S420.5,466,426,466z"/>
</g>
</svg>
