<?xml version="1.0" encoding="utf-8"?>
<!-- Generator: Adobe Illustrator 23.0.0, SVG Export Plug-In . SVG Version: 6.00 Build 0)  -->
<svg version="1.1" id="Layer_1" xmlns="http://www.w3.org/2000/svg" xmlns:xlink="http://www.w3.org/1999/xlink" x="0px" y="0px"
	 viewBox="0 0 511 511" style="enable-background:new 0 0 511 511;" xml:space="preserve">
<style type="text/css">
	.st0{fill:#FEC771;}
</style>
<path class="st0" d="M419.2,85.8c0,5.5-4.5,10-10,10s-10-4.5-10-10c0-5.5,4.5-10,10-10S419.2,80.3,419.2,85.8z"/>
<path class="st0" d="M399.2,225.6c0,5.5-4.5,10-10,10s-10-4.5-10-10c0-5.5,4.5-10,10-10S399.2,220,399.2,225.6z"/>
<path class="st0" d="M501,435.1h-44.9l32.9-43.9c3.3-4.4,2.4-10.7-2-14c-4.4-3.3-10.7-2.4-14,2l-41.9,55.9h-91.8v-61.7
	c26.3-4.8,50.4-18.9,68.5-40.5c20.2-23.9,31.3-55,31.3-87.4c0-25.9-7.1-51-20.2-72.2c12.8-3.1,24.6-9.1,34.2-17.7h36
	c3.5,0,6.7-1.8,8.5-4.7c1.8-2.9,2-6.6,0.4-9.7L479.3,104c0.7-8.1-0.4-15.9-1.4-22.1C471.6,44.6,438.1,16.3,400,16
	c-0.3,0-0.5,0-0.8,0c-20.4,0-38.4,6.5-50.8,18.3C284.8,94.6,147.5,251,71.3,338.8c-35.1,40.5-61.3,71-68.5,79.4l-0.4,0.5
	c-2.5,3-3.1,7.1-1.5,10.7c1.6,3.5,5.2,5.8,9.1,5.8h78.4c41.7,0,80.4-20.7,103.6-55.4c1.9-2.8,5-4.4,8.3-4.4h59.2v59.9h-89.8
	c-5.5,0-10,4.5-10,10c0,5.5,4.5,10,10,10h20l-18,24c-3.3,4.4-2.4,10.7,2,14c1.8,1.3,3.9,2,6,2c3,0,6-1.4,8-4l26.9-35.9h216.6
	l26.9,35.9c2,2.6,5,4,8,4c2.1,0,4.2-0.7,6-2c4.4-3.3,5.3-9.6,2-14l-18-24H501c5.5,0,10-4.5,10-10C511,439.6,506.5,435.1,501,435.1z
	 M175.4,368.6C157,396.2,127,413.2,94.1,415l22.7-22.7c3.9-3.9,3.9-10.2,0-14.1c-3.9-3.9-10.2-3.9-14.1,0l-37,37H31.7
	c11.9-13.9,30-34.9,51.7-59.9h53.2c40.1,0,78.8-14.1,109.3-39.9h88.8c29.6,0,55.7-19.8,62-47.2c0-0.1,0.1-0.2,0.1-0.4
	c1.3-5.3-1.9-10.7-7.3-12.1c-5.3-1.3-10.8,1.9-12.1,7.3c0,0.2-0.1,0.3-0.1,0.5c0,0.1,0,0.1,0,0.2c-4.2,18.4-22.2,31.8-42.6,31.8H266
	c35.8-40.2,67.3-74.8,93.7-103c3.8-4,3.6-10.3-0.5-14.1c-4-3.8-10.3-3.6-14.1,0.5c-27.2,29-59.7,64.9-96.9,106.5
	c-3.9,4.4-8.2,8.6-12.6,12.6c-27.3,24.1-62.5,37.4-99,37.4h-35.9c77.8-89.4,202.3-230.4,261.5-286.6c8.8-8.4,22.2-12.9,37.7-12.8
	c28.5,0.2,53.6,21.4,58.3,49.3c1.4,8.2,1.7,14.2,1,19.2c-0.3,2,0.1,4,1,5.9l12.7,25.5h-23.8c-2.6,0-5.2,1.1-7.1,2.9
	c-10.4,10.4-25.4,16.6-41.2,17c-3.8,0.1-7.2,2.4-8.8,5.8c-1.6,3.5-1,7.5,1.4,10.5c16.6,20.1,25.8,46.2,25.8,73.5
	c0,56.3-39.9,104.3-90.8,109.3c-3,0.3-6,0.4-9,0.4H200.3C190.3,355.3,181,360.3,175.4,368.6z M279.5,375.3h39.9v59.9h-39.9V375.3z"
	/>
</svg>
