<?xml version="1.0" encoding="utf-8"?>
<!-- Generator: Adobe Illustrator 23.0.0, SVG Export Plug-In . SVG Version: 6.00 Build 0)  -->
<svg version="1.1" id="Layer_1" xmlns="http://www.w3.org/2000/svg" xmlns:xlink="http://www.w3.org/1999/xlink" x="0px" y="0px"
	 viewBox="0 0 512 512" style="enable-background:new 0 0 512 512;" xml:space="preserve">
<style type="text/css">
	.st0{fill:#223D41;}
</style>
<g>
	<g>
		<circle class="st0" cx="110" cy="118.7" r="13.7"/>
	</g>
</g>
<g>
	<g>
		<path class="st0" d="M507,316.2L300.3,194.1c-0.8-0.5-4.8-3-7.2-4.2c-13.5-7.1-28.1-10.3-42.6-10c-12.7-0.3-22.9-10.7-22.9-23.4
			v-27c0-49.6-40.4-90-90-90c-33.2,0-63.2,17.9-79,46.8L5.5,114c-3.3,1.7-5.5,5.2-5.5,9c0,3.8,2.1,7.2,5.4,9L56,158.3v84.3
			c0,76.7,56.7,140.5,130.4,151.5l-58.1,58.1h-29c-5.6,0-10.1,4.5-10.1,10.1c0,5.6,4.5,10.1,10.1,10.1h167.1
			c5.6,0,10.1-4.5,10.1-10.1c0-5.6-4.5-10.1-10.1-10.1h-32.8l56.4-56.4h63.7c0.4,0,0.8,0,1.2-0.1c57.8-0.7,112.2-23.1,153.9-63.5
			c0,0,0,0,0.1-0.1c0.3-0.2,0.4-0.5,0.6-0.6c0.4-0.4,0.7-0.9,1.1-1.4C513.4,325.3,511.8,319.1,507,316.2z M76.3,242.6v-90.5
			c0,0,0,0,0-0.1c0-0.1,0-0.2,0-0.2c0-0.1,0-0.3,0-0.4c-0.2-3.4-2.2-6.6-5.4-8.3L32.1,123l37.9-19.7c2.2-0.9,4.1-2.6,5.3-4.9
			c11.9-23.9,35.8-38.7,62.5-38.7c38.5,0,69.8,31.3,69.8,69.8v27c0,11.6,4.6,22.2,12,30c-9.9,4.1-19.1,10.1-27.2,17.9
			c-16.7,16.2-26,37.8-26.4,61c-0.4,23.2,8.3,45.2,24.5,61.8c19.9,20.5,43,36.8,68.3,48.3h-49.5C135.9,375.6,76.3,315.9,76.3,242.6z
			 M205,452.3H157l56.4-56.4h48.1L205,452.3z M288.5,365.5c-2.3-0.8-4.7-1.6-7-2.4v-24.6c0-5.6-4.5-10.1-10.1-10.1
			c-5.6,0-10.1,4.5-10.1,10.1v15.9c-8.5-4.2-16.6-9-24.5-14.3v-43c0-5.6-4.5-10.1-10.1-10.1c-5.6,0-10.1,4.5-10.1,10.1v27.2
			c-4-3.6-7.9-7.3-11.7-11.2c-12.4-12.8-19.1-29.6-18.8-47.4c0.3-17.8,7.5-34.4,20.3-46.8c12.2-11.9,28.1-18.3,44.3-18.8
			c0.2,0,0.9,0,1,0c10.9-0.2,21.9,2.3,32,7.7c1.4,0.7,4.4,2.5,5.9,3.5c0.1,0,0.1,0.1,0.2,0.1l98.6,58.3
			C385.9,322.7,342.1,365.1,288.5,365.5z M352.2,375.5c-1.1,0-2.2,0-3.3,0c-3.8-0.1-7.6-0.2-11.3-0.5c37.2-16.9,64.4-52,70.1-93.9
			l77.1,45.6C447.8,358.3,401.3,375.5,352.2,375.5z"/>
	</g>
</g>
<g>
	<g>
		<path class="st0" d="M159.1,314.9c-2-1.4-4-2.9-5.9-4.5c-4.3-3.6-10.7-3-14.2,1.3c-3.6,4.3-3,10.7,1.3,14.2
			c2.3,1.9,4.8,3.8,7.2,5.5c1.8,1.2,3.8,1.8,5.8,1.8c3.2,0,6.4-1.5,8.3-4.3C164.9,324.4,163.7,318.1,159.1,314.9z"/>
	</g>
</g>
<g>
	<g>
		<path class="st0" d="M135.6,290.7c-9.4-14.3-14.3-30.9-14.3-48c0-5.6-4.5-10.1-10.1-10.1c-5.6,0-10.1,4.5-10.1,10.1
			c0,21.1,6.1,41.5,17.6,59.1c1.9,3,5.2,4.6,8.5,4.6c1.9,0,3.8-0.5,5.5-1.7C137.3,301.6,138.6,295.3,135.6,290.7z"/>
	</g>
</g>
</svg>
