<?xml version="1.0" encoding="utf-8"?>
<!-- Generator: Adobe Illustrator 23.0.0, SVG Export Plug-In . SVG Version: 6.00 Build 0)  -->
<svg version="1.1" id="Layer_1" xmlns="http://www.w3.org/2000/svg" xmlns:xlink="http://www.w3.org/1999/xlink" x="0px" y="0px"
	 viewBox="0 0 511 511" style="enable-background:new 0 0 511 511;" xml:space="preserve">
<style type="text/css">
	.st0{fill:#223D41;}
</style>
<path class="st0" d="M474.5,151.5l-40.8-26.4c-2.4-13.8-10.4-25.8-23.1-34.3c-12.6-8.5-29.1-12.7-45.2-11.6
	c-18.5,1.2-34.9,9.2-46.3,22.3c-4.6,5.3-8.3,11.4-11.1,18.2c-10.3-31.2-23.5-70-34.6-98.2c-6.8-17.2-20.2-20.1-30.5-17
	c-11.6,3.4-23.4,15-31.5,31c-4.1,8-6.9,16.4-8.4,24.7C186.7,43,170.6,24.4,154.6,4.2c-0.8-1-1.8-1.8-2.8-2.5
	c-3.5-2-10.9-4.1-20.7,4.6c-11.9,10.5-28.6,39.3-22.6,67c-6.2,5.4-12.3,14.7-16,25.2c-5.2,14.7-9.8,43.8,15.5,75.6
	c-1.7,21.8,3.5,40.3,15.4,55.1c8.9,10.9,21.3,19.4,36.8,25.2c-31.1,4.7-73.6,4.2-100,0.1c-8.5-1.3-15.9,3.8-18.8,13.1
	c-2.9,9.2-1.6,22.6,3.4,34.9c5.3,13,14.1,23.5,24.9,29.9c7.7,20.5,25.6,34.2,50.6,39.4l-15.7,16.8c-7.1-4.6-16.4-5.4-24.5-1.5
	c0,0,0,0,0,0l-32.9,15.8c-12.5,6-17.8,21.1-11.8,33.6l29,60.4c4.3,9,13.4,14.3,22.8,14.3c3.6,0,7.3-0.8,10.8-2.5l32.9-15.8
	c8.2-4,13.3-11.8,14.2-20.3l38.8-12.6c5.2-1.7,8.1-7.3,6.4-12.6c-1.7-5.2-7.3-8.1-12.6-6.4l-37.8,12.3l-23.2-48.3l37-39.6
	c14.1-13.6,16.6-13.9,55.6-18.9l7.8-1c0.1,0,0.2,0,0.4-0.1c4.7-0.8,6.5,0.6,7.4,2.5c0,0,0,0.1,0,0.1c0.2,0.4,0.3,0.9,0.4,1.4
	c1.4,6.1-2.7,17-15.9,21.2c-5.9,1.1-12.6,2.5-20.3,4c-5.4,1.1-8.9,6.4-7.7,11.8c1.1,5.4,6.4,8.9,11.8,7.7c7.6-1.6,14.3-2.9,20.2-4
	c0.2,0,0.3-0.1,0.5-0.1c11-2.1,19.1-3.4,25.7-4.5c9.8-1.6,16.3-2.7,23.5-4.7c1.1-0.3,2.1-0.8,3-1.4l62.3-43.2
	c0.2-0.1,0.3-0.2,0.5-0.3c8.5-6.6,16-8.8,19-5.5c2.2,2.4,2.6,7.6-0.1,10.6L289,404.6l-32.2,10.9c-5.2,1.8-8,7.4-6.2,12.6
	c1.4,4.2,5.3,6.8,9.4,6.8c1.1,0,2.1-0.2,3.2-0.5l34.6-11.7c1.6-0.5,3-1.5,4.1-2.7l60.4-65.7c9.6-10.4,9.6-27.3,0.1-37.6
	c-8.4-9.1-24.8-13.1-45.7,3.1l-60.7,42c-4,1-7.9,1.8-13,2.7c2.1-5.5,2.8-11.2,2.2-16.6c20.1-13.8,28.3-24,35.1-32.4
	c0.8-1.1,1.7-2.1,2.5-3c103.3-41.6,122.4-75,144.9-133l43.6-9.9c3.9-0.9,6.9-4,7.6-8C479.6,157.7,477.9,153.7,474.5,151.5z
	 M248.6,23.6c1.7-0.5,3.8-1.1,6.2,5.2c12.5,31.8,28,77.8,38.5,110.2c-24.3-17-48-36.8-71.3-59.5C218.7,54.4,237.2,26.9,248.6,23.6z
	 M122.3,474.8l-32.9,15.8c-2.6,1.3-5.7,0.1-7-2.5l-29-60.4c-1.2-2.6-0.1-5.8,2.5-7l32.9-15.8c2.6-1.2,5.8-0.1,7,2.4
	c0,0,24.4,50.3,28.8,61.1c0.9,2.2,0.2,4.8-1.8,6C122.7,474.6,122.5,474.7,122.3,474.8z M235.7,330.2c-5.5-4.2-13-6-21.3-4.7l-7.6,1
	c-39.8,5.1-48.1,6.1-67.1,24.5c-0.1,0.1-0.2,0.2-0.4,0.4l-2.3,2.4c-13.6-0.9-32.5-4.9-43.2-18.9c34.6-2.6,77.5-15,106.4-31.3
	c4.8-2.7,6.5-8.8,3.8-13.6s-8.8-6.5-13.6-3.8c-29.5,16.8-77.2,29.4-109.8,29.2c-12.5-7.1-17.4-20.3-19-25.9c-2-7.1-1.9-12.3-1.3-15
	c38.3,5.4,115.8,5.4,144.3-13.7c3.5-2.4,5.2-6.7,4.1-10.8c-1-4.1-4.6-7.1-8.8-7.5c-28-2.5-49.1-11.6-60.8-26.1
	c-6.1-7.5-9.7-16.6-10.9-27.1c30.9,17.3,65.2,19.6,66.9,19.7c0.2,0,0.4,0,0.6,0c5.2,0,9.6-4.1,9.9-9.4c0.3-5.5-3.9-10.2-9.4-10.5
	c-0.4,0-42.1-2.7-70.7-25.5c-13.5-16-19.1-33.3-16.3-50c1.6-9.3,5.3-16.4,8.5-20.8c20.5,30.6,56.8,53.7,77,60.5
	c1,0.3,2.1,0.5,3.1,0.5c4.2,0,8.1-2.6,9.5-6.8c1.7-5.2-1.1-10.9-6.3-12.6c-19.5-6.5-55.9-31.5-71.2-60c-5.1-12.4-1-26.2,1.9-33.4
	c3.7-9.2,8.5-15.6,11.8-18.8c20.3,25.2,40.8,48,61.6,68.6c0.5,0.6,1,1.1,1.5,1.5c31.9,31.3,64.6,57.3,98.7,78.5
	c1.8,1.4,4,2.2,6.3,2.2c1,0,2-0.2,3-0.5c1.7-0.5,3.1-1.5,4.2-2.7c0.1-0.1,0.2-0.2,0.2-0.3c0.2-0.2,0.3-0.4,0.5-0.5
	c0.1-0.2,0.3-0.4,0.4-0.6c0,0,0-0.1,0.1-0.1c1.1-1.8,1.7-3.9,1.6-6.1c-2.9-44.3,21.4-61.7,45.2-63.3c20.1-1.3,42.5,8.9,46.9,27.8
	c-5.2,5.3-8.5,12.8-9.5,21.5c-0.6,5.6-0.1,11.1,1.2,16c-46.6,16-106.9,79.6-137,134.1c-1.3,1.5-2.5,2.9-3.7,4.5
	C258.8,310.4,252,318.7,235.7,330.2z M301.8,282.6c29.2-42.2,70.2-81,101.3-95.8C386.3,227,367,252.8,301.8,282.6z M424.9,159.6
	c-0.7-2.4-1.2-5.6-0.8-9.2c0.3-2.5,0.9-4.8,1.8-6.6l17.9,11.6L424.9,159.6z"/>
<path class="st0" d="M372.6,140.9h0.2c5.5,0,10-4.5,10-10s-4.5-10-10-10h-0.2c-5.5,0-10,4.5-10,10
	C362.7,136.5,367.1,140.9,372.6,140.9z"/>
<path class="st0" d="M216.1,428.4l-0.2,0.1c-4.9,2.5-6.9,8.4-4.5,13.4c1.7,3.5,5.3,5.5,8.9,5.5c1.5,0,3-0.3,4.4-1.1l0.2-0.1
	c4.9-2.5,6.9-8.4,4.5-13.4C227,427.9,221.1,425.9,216.1,428.4z"/>
</svg>
