<svg id="Layer_1" data-name="Layer 1" xmlns="http://www.w3.org/2000/svg" viewBox="0 0 557.97 558"><defs><style>.cls-1{fill:#fff;}</style></defs><title>birdCount</title><path class="cls-1" d="M461,703.48c-7.09-2.63-14.69-4.37-21.18-8.06-16.13-9.18-24-24.09-26.71-42.09-1.5-10-1.64-9.93-11.85-9.93-19.07,0-38.13,0-57.2,0-7.06,0-11.65-3.28-12.7-8.74-1.38-7.18,3.59-13,11.51-13,20.88-.1,41.77-.06,62.66-.06l143.84,0c1.59,0,3.17-.14,5-.23v-34.7h-6.87q-108.42,0-216.85.08c-24,0-45.77-6.25-65.43-20.14-20.46-14.45-41.21-28.49-61.7-42.9A85.62,85.62,0,0,0,153,507.78q-53.94,0-107.88,0c-1.42,0-2.84.21-4.52.34v54.79h5.74c26.33,0,52.66.06,79,0,25.33-.07,48.35,6.11,67.86,23.29a233.08,233.08,0,0,0,27.6,21.25c7.34,4.72,15.72,8.12,24,11,9.36,3.24,13.57,7.67,11.61,14.57-2,7.12-7.73,9.41-17.29,6.77-13.08-3.6-25.17-9.15-35.78-17.8-8.3-6.77-17-13.07-25.25-19.87-14.07-11.55-30.39-17-48.28-17.22-32.14-.38-64.29-.13-96.43-.15-11.52,0-14.88-3.4-14.88-15q0-34.6,0-69.2c0-11,3.55-14.6,14.72-14.64,14.35,0,28.7,0,43.05,0h6.75c-1.43-2.28-2.3-3.79-3.29-5.21-8.5-12.21-17-24.44-25.57-36.6-2.82-4-4.15-8.06-1.79-12.69,2.45-4.84,6.63-6.14,11.77-6.1,16,.12,32,.14,48,0,5.65-.06,9.57,2.07,12.67,6.79,10.93,16.7,22.14,33.23,33.09,49.92a9.29,9.29,0,0,0,7.78,4.69c19.44,1.82,36.72,9.33,52.58,20.53,19.42,13.72,39,27.25,58.49,40.84,1.91,1.33,3.93,2.51,6.2,4l11.15-30.72a17.55,17.55,0,0,0-2.1-1.63C247.8,494.92,220,458,208.06,408.55c-8.73-36.12-19.14-71.83-28.6-107.77-1.08-4.09-2.74-5.41-7-5.37-23.25.22-46.49.08-69.74.13-5.45,0-10.77-1.06-12.37-6.72-1-3.38-.58-8.25,1.27-11.13,18.45-28.7,43.31-49,77.05-57.35,1.81-.45,4-3,4.41-5a89.68,89.68,0,0,1,89-69.86c38.71.67,72.62,27,84.4,65.58,4.61,15.08,9.08,30.21,13.89,45.23.56,1.77,2.69,4.14,4.31,4.32,45,5.21,75.79,29.83,92.93,70.77,7.49,17.91,11.67,37.31,16.25,56.29,11.85,49.19,23.07,98.52,34.57,147.79,2.21,9.47-.16,15.44-7.29,17.07-2.54.58-5.33.09-8,.09,1.86,9.34,5.18,12.23,14.22,12.23,18.16,0,36.32.2,54.48-.12,6.71-.11,11.62,1.84,14.62,8v63.21c-3.52,5.9-8.71,8.07-15.51,7.6-5.62-.39-11.3-.08-17.8-.08,3.89,6.91,7.74,12.5,10.26,18.64,2.08,5,3.83,10.79,3.54,16.11-.75,13.64-9.51,21.27-21.91,25.3ZM407,513.27c-2.24-1.94-3.58-3.14-4.95-4.28-24.32-20.31-42.81-45-53.72-74.75-6.41-17.48-10.52-35.79-15.87-53.67-7.21-24.08-15.19-48.09-32.45-67-13.87-15.19-7.08-39.37,14.42-42.85,8.51-1.37,16.83-3.85,25.86-6-6-19-10.65-38-17.94-55.82-16.91-41.43-68.53-54.59-103.65-27.14a65.39,65.39,0,0,0-23.34,35.33c6.06,0,11.46.26,16.82-.08,5.53-.34,9.76,1.73,13.69,5.37a46.13,46.13,0,0,1,2.88,65.13c-4.86,5.36-10.52,8.79-18.15,8.05-3.15-.31-6.36-.05-9.94-.05.71,2.77,1.18,4.69,1.7,6.61Q216.64,355.44,231,408.74q19.26,71.42,87.91,99C347.14,519,376.24,520.67,407,513.27ZM484.11,528c-.48-2.54-.62-3.41-.82-4.27-9.08-39-18-78.1-27.32-117.09-4.83-20.27-9-40.85-15.71-60.48-10.72-31.13-31.54-53.12-64.44-61.55-5.51-1.42-11.67-2.48-17.14-1.51-13.73,2.44-27.21,6.22-40.83,9.3-4.47,1-4.37,2.85-1.88,5.94,3.41,4.24,6.92,8.44,9.89,13,16.55,25.26,25.88,53.47,32.65,82.55,13.7,58.79,47.51,100.94,102.74,125.58C468.3,522.61,475.72,524.9,484.11,528ZM433.58,643.4c.74,4.08,1.28,7.47,2,10.82,3.64,17,16.2,27.38,33.53,27.44,19.58.07,39.17,0,58.75,0,7.31,0,9.57-3.71,6.1-10.06-4.52-8.27-9.37-16.36-13.73-24.7-1.54-2.92-3.46-3.59-6.45-3.53-7.79.16-15.59,0-23.39,0ZM121.19,273.72H203.7c9,0,11.94-2.31,14.34-11.16A23,23,0,0,0,214.15,242c-1-1.41-3.08-2.86-4.71-2.92-19.75-.75-39.1,1-57.08,10.24A99.23,99.23,0,0,0,121.19,273.72Zm292.64,260.5c1.6,9,3.31,17.67,4.63,26.4.52,3.47,2,4.35,5.35,4.32,15.22-.16,30.45-.06,45.67-.09a33,33,0,0,0,3.93-.52c-6-11.13-9.81-23.22-24-26.3-3.79-.82-7.47-2.9-10.77-5.07-6.07-4-11.85-6.28-18.42-1C418.78,533.11,416.54,533.3,413.83,534.22ZM338.9,565.67V537l-24.7-6.89c-3.81,10.47-7.49,20.63-11.71,32.25ZM134.29,485.93c-8.68-13.09-16.62-25.1-24.62-37.08a3.24,3.24,0,0,0-2.08-1.48c-7.82-.1-15.63-.06-24.54-.06,9,13,17.3,24.81,25.63,36.6a4.59,4.59,0,0,0,3,1.93C118.79,486,125.94,485.93,134.29,485.93Zm227,78.59h35.81c-1.63-8.89-3.17-17.31-4.58-25H361.27Z" transform="translate(-18.55 -145.48)"/><path class="cls-1" d="M294.51,643.29a11.16,11.16,0,0,1-11.06-10.58,10.88,10.88,0,0,1,10.43-11.08,10.71,10.71,0,0,1,11.27,10.72A11,11,0,0,1,294.51,643.29Z" transform="translate(-18.55 -145.48)"/><path class="cls-1" d="M249.37,218.79a10.85,10.85,0,0,1,10.52-11,11.1,11.1,0,0,1,11,11.09A10.83,10.83,0,0,1,260,229.48,10.55,10.55,0,0,1,249.37,218.79Z" transform="translate(-18.55 -145.48)"/></svg>