<?xml version="1.0" encoding="utf-8"?>
<!-- Generator: Adobe Illustrator 23.0.0, SVG Export Plug-In . SVG Version: 6.00 Build 0)  -->
<svg version="1.1" id="Capa_1" xmlns="http://www.w3.org/2000/svg" xmlns:xlink="http://www.w3.org/1999/xlink" x="0px" y="0px"
	 viewBox="0 0 512 512" style="enable-background:new 0 0 512 512;" xml:space="preserve">
<style type="text/css">
	.st0{fill:#223D41;}
</style>
<g>
	<g>
		<path class="st0" d="M482.2,137.8l-34-37.2C444.4,44.5,397.4,0,340.2,0c-59.7,0-108.3,48.5-108.3,108.2c0,1,0,2.1,0,3.1
			c0.3,9.9-0.8,19.5-3.4,28.7l0,0c0,0,0,0,0,0c-1.1,4.2-2.6,8.3-4.3,12.2c-0.1,0.1-0.1,0.3-0.2,0.4c-0.4,1-98.8,199.8-98.9,199.9
			c-4.1,8.2-7.4,15-9.9,19.9c0,0,0,0,0,0c0,0,0,0,0,0c-1.1,2.3-2,4.1-2.7,5.5c-7.5,15-23.5,40-26.5,44.6l-56.2,59.5
			c-2.1,2.2-3.1,5.2-2.6,8.2c0.4,3,2.2,5.7,4.8,7.2C48,507,66.4,512,84.9,512c4.3,0,8.6-0.3,12.9-0.8c23.2-2.9,44.9-13.8,61.2-30.5
			c10.3-10.6,18.1-23.5,22.8-37.7c63.5-0.4,139.7-10.1,191.8-55.4c38.5-33.5,54.2-79.7,60.7-112.6c7.3-37.5,6.2-77.5-2.8-108.3
			c1.3-2.1,2.6-4.2,3.8-6.3l41.2-5.9c3.7-0.5,6.7-3,8-6.5C485.5,144.4,484.7,140.5,482.2,137.8z M211.9,222.5
			c6.7-13.5,13.2-26.7,19.3-39.1c0,0,0,0,0-0.1c0,0,0,0,0,0l2.4-4.8c6.6,15.1,10,31.5,10,48.2c0,55.8-39.1,104-91.8,116.9
			C168.2,310.8,190.9,265.1,211.9,222.5z M140.8,366.1c32.8-4.1,63-19.6,85.6-44c24-26,37.3-59.8,37.3-95.3c0-23.5-5.9-46.5-17-67
			c30.9,22.5,49.6,58.5,49.6,97.4c0,66.4-54,120.4-120.4,120.4c-13,0-25.7-2-37.8-6.1C139,369.8,139.9,368,140.8,366.1z
			 M144.6,466.7c-24,24.7-59.9,31.9-91,19.3l44.2-46.8c7.9,0.8,24.6,2.2,46.6,3c5.2,0.2,10.5,0.4,16,0.5
			C156.7,451.7,151.3,459.8,144.6,466.7z M419.7,146.5c-0.1,0.2-0.2,0.4-0.3,0.6c-2.1,4.2-4.5,8.3-7.3,12.2c-1.9,2.6-2.4,5.9-1.3,9
			c17.4,52.1,9.5,152-50.5,204.3c-49.2,42.9-124.5,50.7-185.8,50.5c-0.2,0-0.3,0-0.5,0c-3.7,0-7.4-0.1-11-0.1v0l-1.5,0
			c-0.1,0-0.1,0-0.2,0c-0.1,0-0.1,0-0.2,0c-5.4-0.1-10.7-0.3-15.8-0.5c-13.7-0.5-25.4-1.3-34-2c5.7-9.2,13-21.2,18-30.8
			c15,5.3,30.7,8,46.8,8c77.4,0,140.4-63,140.4-140.4c0-48.9-25.3-93.9-66.6-119.4c1.8-8.8,2.5-17.8,2.3-27c0-0.9,0-1.7,0-2.6
			c0-48.6,39.6-88.2,88.3-88.2c48.7,0,88.3,39.5,88.3,88.2C428.5,121.6,425.5,134.6,419.7,146.5z M444.1,138.8
			c1-3.4,1.9-6.9,2.5-10.4l8.1,8.9L444.1,138.8z"/>
	</g>
</g>
<g>
	<g>
		<path class="st0" d="M389.2,227.5c-5.5-0.3-10.3,3.9-10.6,9.4c-2.7,44.6-18.9,83-44.6,105.4c-16.8,14.6-40.1,25.4-69.4,32.2
			c-5.4,1.2-8.7,6.6-7.5,12c1.1,4.6,5.2,7.8,9.7,7.8c0.7,0,1.5-0.1,2.2-0.3c32.5-7.5,58.8-19.8,78.1-36.6
			c29.7-25.9,48.4-69.3,51.4-119.3C398.9,232.6,394.7,227.8,389.2,227.5z"/>
	</g>
</g>
<g>
	<g>
		<path class="st0" d="M397,196.9c-0.1-0.6-0.3-1.3-0.6-1.9c-0.3-0.6-0.6-1.2-0.9-1.7c-0.4-0.6-0.8-1.1-1.3-1.5
			c-2.3-2.3-5.8-3.4-9-2.7c-0.6,0.1-1.3,0.3-1.9,0.6c-0.6,0.3-1.2,0.6-1.7,0.9c-0.5,0.4-1.1,0.8-1.5,1.3c-0.5,0.5-0.9,1-1.2,1.5
			c-0.4,0.5-0.7,1.1-0.9,1.7c-0.3,0.6-0.4,1.2-0.6,1.9c-0.1,0.6-0.2,1.3-0.2,2c0,0.6,0.1,1.3,0.2,1.9s0.3,1.3,0.6,1.9
			c0.3,0.6,0.6,1.2,0.9,1.7c0.4,0.6,0.8,1.1,1.2,1.5s1,0.9,1.5,1.2c0.5,0.4,1.1,0.7,1.7,0.9c0.6,0.3,1.2,0.4,1.9,0.6
			c0.6,0.1,1.3,0.2,1.9,0.2c0.6,0,1.3-0.1,2-0.2c0.6-0.1,1.3-0.3,1.9-0.6c0.6-0.3,1.2-0.6,1.7-0.9c0.5-0.4,1.1-0.8,1.5-1.2
			s0.9-1,1.3-1.5c0.4-0.5,0.7-1.1,0.9-1.7c0.3-0.6,0.4-1.2,0.6-1.9s0.2-1.3,0.2-1.9C397.2,198.2,397.1,197.5,397,196.9z"/>
	</g>
</g>
<g>
	<g>
		<path class="st0" d="M365.7,82.5c-5.5,0-10,4.5-10,10v5.2c0,5.5,4.5,10,10,10c5.5,0,10-4.5,10-10v-5.2
			C375.7,87,371.2,82.5,365.7,82.5z"/>
	</g>
</g>
</svg>
