<?xml version="1.0" encoding="utf-8"?>
<!-- Generator: Adobe Illustrator 23.0.0, SVG Export Plug-In . SVG Version: 6.00 Build 0)  -->
<svg version="1.1" id="Layer_1" xmlns="http://www.w3.org/2000/svg" xmlns:xlink="http://www.w3.org/1999/xlink" x="0px" y="0px"
	 viewBox="0 0 511 511" style="enable-background:new 0 0 511 511;" xml:space="preserve">
<style type="text/css">
	.st0{fill:#FEC771;}
</style>
<g>
	<path class="st0" d="M74.2,345.9c1.1-6.3,2.6-12.2,7.7-16.5c1.1-0.9,0.9-2,0.9-3.1c-0.6-27.9,17.1-43.6,46.7-45
		c3.1-0.3,6.3-0.3,9.4-0.3c5.7,0.6,11.1,1.4,16.8,2c17.4,4.6,29.6,14.5,33.9,32.7c0.3,2.6,0.9,5.4,0.6,8c-0.3,3.7,0.6,6.5,3.7,8.5
		c6,10.5,6.5,21.1-1.1,31c-2.3,2.8-3.7,5.7-4.3,9.4c-1.1,7.4-5.1,13.7-9.4,20.2c7.4,0.9,13.7,3.1,19.9,5.1c3.7,1.7,7.1,3.4,10.8,5.4
		c14.2,9.1,25.9,20.8,33.6,35.9c1.7,4.6,3.1,9.1,4.8,13.7c2,10.8,1.7,21.6,1.7,32.7c0,14.5-3.4,19.9-16.5,25.3
		c-64.6,0-129.5,0-194.1,0c-4.6-3.1-9.7-5.7-12.5-10.8c-2.3-4.8-2.3-10.2-2.3-15.7c0.6-11.1-0.6-22.2,2.6-33c9.4-31,31-49,61.8-57.2
		c1.7-0.3,3.1-0.6,4.8-1.1c0,0,0.3-0.3,0.6-0.3c-5.4-7.1-8.8-15.1-10.2-23.9c-0.6-3.7-4.6-5.7-6.3-9.1
		C75.6,355.3,74.5,350.7,74.2,345.9z M229.9,474.6c0.3-6,0.3-12-1.7-17.6c-4.6-18.5-16.5-30.5-33.3-38.4c-2.8-2-6.5-2.8-9.7-4
		c-2-0.9-2.8-0.3-3.4,1.7c-5.7,16.8-17.4,27.3-35,31c-19.4,2-36.7-1.7-49-18.5c-2-4-4-8-6-11.7c0-2.3-0.6-3.1-3.1-2.3
		c-6.5,2-12.8,4.8-18.5,8.8c-13.1,9.4-23.1,21.1-25.3,37.9c-1.7,6.5-0.9,13.1-0.9,19.6c-0.6,10.8-0.6,10.8,9.7,10.8c0.6,0,1.4,0,2,0
		c4,0,8.8,1.1,11.4-0.6c2.6-2,0.6-7.4,0.9-11.1c0-0.6,0-0.9,0-1.4c0.3-6.3,4-10.2,9.4-10.2c5.7-0.3,9.7,4,10.2,10.2
		c0.3,3.4,0.3,6.8,0,10.2c-0.3,2.6,0.9,3.4,3.4,3.1c4.8-0.3,9.7-0.3,14.5-0.3c6.3,0,12.5,0,18.8,0c16.2,0,32.5,0.3,48.7,0
		c4.3,0,10,1.7,12.5-0.9c2-2,0.6-7.7,0.6-11.7c0.3-6.3,3.4-10.2,8.3-11.1c5.1-0.9,8.8,1.7,11.4,8c0,3.1,0,6.5,0,9.7
		c0,6.3,0,6.3,6.5,6c0.6,0,1.4,0.3,2,0c5.1-0.3,12,2.3,14.8-1.1C231.9,486.5,229.9,479.7,229.9,474.6z M178.4,347
		c0.3-1.7-0.3-2.8-1.7-3.4c-2.8-0.9-4.3-3.1-6-5.4c0-4.8,0.3-9.7,0-14.5c-0.3-9.1-4.6-15.4-13.1-18.8c-7.1-3.1-14.8-4.3-22.5-3.4
		c-1.4,0-2.8-0.3-4.3,0c-21.9,0.9-30.2,10.2-27.6,32.5c0,4-0.9,7.4-4.6,9.7c-5.4,3.1-6,6.5-0.9,10c3.7,2.8,5.4,6,5.7,10.5
		c0.9,11.7,6.3,20.2,17.4,24.8c4.6,2.8,9.7,3.4,14.8,3.4c15.9,1.1,34.2-8,35-29.6c0-4,1.7-6.8,5.1-8.8
		C177.2,351.9,179.2,349.9,178.4,347z M112.1,411.7c3.7,10.5,11.7,15.7,23.6,16.2c12,0.3,21.3-4.6,25.3-13.4c0.9-2,1.1-2.8-1.7-2.8
		C143.7,411.7,128,411.7,112.1,411.7z"/>
	<path class="st0" d="M477.3,510.7c-63.8,0-127.5,0-191.3,0c-8-3.7-14.5-8.5-15.1-17.9c-0.9-12-1.4-24.2,0.9-36.2
		c6.8-32.2,27.3-51.5,57.8-61.5c3.1-1.1,6.3-1.7,10-2.6c-4.8-6-7.4-12.5-9.7-19.1c0.6-5.7-3.4-9.1-6.5-12.8
		c-4.8-11.1-5.1-21.3,4-30.7c1.4-1.4,1.1-3.4,1.1-5.1c0.9-21.9,12.2-36.7,32.5-41.6c13.7-3.1,27-2.8,40.7-0.3c4,1.4,8,2.8,12,4.3
		c15.1,8.5,22.8,21.9,22.2,39.3c0,2.3,1.1,3.4,2.8,4.6c2.8,4.3,4.8,8.5,5.4,13.7c0.3,8-1.7,15.1-7.7,20.8c-0.6,0.6-1.1,1.4-1.1,2
		c-1.1,9.1-4.8,17.1-10.5,24.8c11.4,1.7,21.3,6,31,11.1c4,2.8,8,6,12,8.8c12,11.7,21.3,24.8,24.8,41.3c0.6,5.7,1.1,11.7,1.7,17.4
		c0,6-0.3,11.7-0.3,17.6C493.8,500.5,487.5,507.3,477.3,510.7z M367.4,424.2c15.4,8.5,35.3,2.3,39.6-12.5c-1.1,0-2,0-2.8,0
		c-9.1,0-17.9,0.3-27,0.3c-3.4,0-6.8-0.3-10.2-0.3c-3.1,0.3-8.5-1.4-9.1,0.9c-0.9,3.4,3.1,6.5,6,9.4
		C364.8,422.8,366.3,423.3,367.4,424.2z M381.1,300.9c-6.8-0.6-13.4,0.6-19.6,2.8c-6.8,2.6-11.4,7.4-12.5,14.8
		c-0.9,4.8-1.4,9.7,0,14.5c-0.3,4.3-1.1,8-5.7,10c-4,1.7-4.6,5.7-1.4,8.8c1.4,1.4,3.1,2.6,4.8,4c0.9,2,2,4,2,6.5
		c0,17.6,14.8,29.6,32.5,29.3c3.1,0.9,6.3,0,9.1-0.6c14.8-2.3,24.2-12.8,25.3-27.6c0.3-2.6,0.9-5.1,2-7.4c0.6-0.6,1.1-1.1,2-2
		c2.3-1.1,4.6-2.3,4.6-5.1c0.3-2,0.9-4.3-1.4-5.1c-6.5-2.8-7.4-7.7-6.5-13.9c1.7-15.1-4.8-24.2-18.5-26.8
		C392.4,300.9,386.7,300.6,381.1,300.9z M300.8,491.1c4.8,0,10.8,1.7,13.7-0.6c3.1-2.6,0.6-8.8,0.9-13.4c0-0.3,0-0.3,0-0.6
		c0.9-5.1,4-8.3,9.1-9.1c7.7,0.9,10.5,4,10.8,11.7c0,2.8,0,6,0,8.8c0,2.3,0.3,3.4,3.1,3.4c10.8-0.3,21.3-0.3,32.2-0.3
		c6.3,0,12.5,0,18.8,0c10,0,19.9,0,29.9,0c4,0,8.8,1.1,11.4-0.6c2.6-2,0.6-7.4,0.9-11.1c0-0.9,0-1.7,0-2.6c0.3-5.1,4-8.8,8.8-9.4
		c5.1-0.3,9.7,2.8,10.5,8.3c0.3,2.6,0.3,5.1,0.3,7.7c0,8,0,8,8,7.4c16.5,0.9,16.5,0.9,15.4-15.7c1.4-20.5-6-36.7-22.2-49.5
		c-3.4-3.4-7.4-6-12-7.7c-2.3-2-4.8-2.3-7.4-3.4c-3.1-1.4-5.1-1.1-6.5,2.8c-5.7,15.4-16.5,25.6-33,28.5c-14.8,2.8-28.7,0.6-41.3-8.5
		c-2.8-3.1-6-6.5-8.8-9.7c-1.7-3.1-3.7-6.3-4.6-9.7c-1.1-5.4-3.7-4.6-7.4-3.1c-27.6,10-42.7,33.9-40.7,64.3c0,0.6-0.3,0.9-0.3,1.4
		C290,491.4,290,491.4,300.8,491.1z"/>
	<path class="st0" d="M494.9,98c1.1,5.7,2,11.7,2,17.6c0,23.3,0,46.4,0,69.5c0,7.7-1.7,15.1-4,22.5c-5.1,10-11.7,18.2-21.9,23.6
		c-2,1.1-1.7,2.8-1.7,4.6c0,9.1,0,17.9,0,27c0,4.8-1.4,8.8-6,10.8s-8.3,0.6-11.7-2.6c-3.7-3.4-7.7-6.5-11.7-9.7
		c-2.8-3.1-6.3-6-10-8.5c-4.8-4.6-10-8.8-14.8-13.4c-1.1-0.9-2-1.4-3.4-1.1c-12.5,0-25,0.3-37.6,0.3c-6.3,0-12.5,0-18.5,0
		c-23.3,0-46.4,0-69.5,0c-6.3,0-12.5,0-18.5,0c-23.3,0-46.4,0-69.5,0c-6.3,0-12.5,0-18.5,0c-6.8,0-13.9-0.3-20.8,0
		c-13.4,0.6-25.6-2.3-36.7-10c-3.4-3.1-6.5-6.5-10-9.7c-5.7-8.3-5.4-8.3-11.4-1.7c-9.4,10.8-18.8,21.6-28.2,32.5
		c-4.3,4.8-7.7,6-12.2,4.3c-5.1-2-6.3-6-6.3-10.8c0-11.7,0-23.1-0.3-34.7c0-6.5,0-13.1,0-19.4c0-1.7,0-3.4,0.3-5.4
		c0.3-2-0.3-2.8-2.6-3.4c-15.4-4-26.2-13.7-33.3-27.6c-1.1-4.3-2.6-8.5-3.7-12.8c-1.1-26.5-0.3-53.2-0.6-79.7
		c0-3.4,0.3-6.8,0.9-10.2c4-23.3,25.3-41.3,49.2-41c6.3,0,10.8,4,10.8,9.7c0.3,5.4-4.3,9.7-10.5,10C46,29.4,34.1,41.9,34.1,60.4
		c0,19.4,0,39,0.3,58.4c0,6-0.9,12,0.6,17.6c1.4,14.2,12.5,24.5,28.2,25.9c4.3,0.3,7.7,1.7,10.2,5.4c1.7,5.7,0.3,11.7,1.1,17.6
		c0,10.8,0,21.6,0,33.3c8.8-10.2,16.8-19.6,25-29c1.1-1.1,2-2.6,2-4.3c-0.3-7.7-0.3-15.7-0.3-23.3c0.6-6.5,0.6-13.1,0-19.6
		c0-9.7,0.3-19.6,0.3-29.3c0.6-29.9,22.2-51.2,52.1-51.2c9.7,0,19.4-0.3,28.7-0.3c6.5,0.6,13.1,0.3,19.6,0c22.8,0.3,45.8,0.6,68.6,0
		c6.5,0.6,13.1,0.3,19.6,0c26.5,0,53.2,0,79.7,0.3c2.6,0,2.8-1.1,2.8-3.4c0.3-15.1-12.5-29-28.2-29.6c-8.3-0.3-16.5,0-25,0
		c-6.3,0-12.5,0-18.8,0c-23.1,0-46.4,0-69.5,0c-6.3,0-12.5,0-18.8,0c-19.4,0-38.7,0-58.1,0c-2.8,0-5.4-0.3-8.3-1.1
		c-3.7-2.8-5.1-6.8-4.6-11.7c2.6-5.7,6.8-7.4,12.5-7.4c60.6,0,121.3,0.3,182.2,0c21.3-0.3,38.1,7.1,49.5,25.3
		c1.7,4,3.4,8.3,4.8,12.2c0.3,4.3,1.7,8.3,1.1,12.5c-0.3,2,0.6,2.8,2.8,2.8c17.4-0.3,34.7-0.3,52.1-0.3c5.4,0.3,10.5,1.4,15.7,2.6
		C478.4,70.1,489.5,81.5,494.9,98z M159.6,81.2c-26.2-3.1-41.8,15.4-38.4,38.4c-0.6,6.5-0.6,13.1,0,19.6c-0.6,17.6-0.9,35,0.3,52.7
		c0.3,4.3,1.7,8.5,4.6,12c2.3,4.3,5.7,7.7,10,9.7c4,3.1,9.1,4.6,13.9,4.6c17.4,0.3,34.4,0,51.8,0c6.3,0,12.5,0,18.8,0
		c23.1,0,46.4,0,69.5,0c6.3,0,12.5,0,18.8,0c23.1,0,46.4,0,69.5,0c6.3,0,12.5,0,18.8,0c0.6,0,1.4,0.3,2,0
		c16.5-2.8,29.3,2.8,40.1,15.4c2.8,3.4,6.5,6,10.8,9.4c0-5.7,0.3-10.2,0-14.8c-0.3-6.3,2.3-10,8.3-12.2c12-4.8,18.8-14.2,19.4-27
		c0.6-17.1,0-33.9,0-51c0-6.3,0-12.5,0-18.8c0-2.6,0.3-4.8,0.3-7.4c-0.3-19.1-15.1-32.5-34.2-31c-6.3-0.6-12.5-0.3-18.5,0
		c-23.3-0.3-46.4-0.3-69.7,0c-6.3-0.6-12.5-0.3-18.5,0c-23.3-0.3-46.4-0.3-69.7,0c-6.3-0.6-12.5-0.3-18.5,0
		c-23.3-0.3-46.4-0.3-69.7,0C171.8,80.9,165.9,80.9,159.6,81.2z"/>
	<path class="st0" d="M108.9,8.9c5.4,0,9.7,4.3,10,9.4c0,5.4-4,10-9.1,10c-5.4,0.3-10.2-4.3-10.2-9.7C99.2,13.1,103.5,8.9,108.9,8.9
		z"/>
	<path class="st0" d="M216.2,115.6c6.3,0.6,12.5,0.6,18.5,0c23.3,0.3,46.4,0.6,69.7,0c6.3,0.6,12.5,0.6,18.5,0
		c23.3,0.3,46.4,0.6,69.7,0c6.3,0.6,12.5,0.6,18.5,0c2,0,4.3,0,6.3,0.3c5.7,0.6,9.4,4.8,9.4,10c-0.3,5.4-4,9.4-10,9.4
		c-9.4,0.3-18.8,0.3-28.5,0.3c-6.5-0.3-13.1-0.6-19.6,0c-22.8-0.6-45.8-0.6-68.6,0c-6.5-0.6-13.1-0.6-19.6,0
		c-9.7,0-19.1-0.3-28.7-0.3c-13.4,0-26.5,0.3-39.9,0.3c-6.5-0.6-13.1-0.6-19.6,0c-2.8,0-5.4-0.3-8.3-0.3c-5.4-0.6-9.1-4.3-9.4-9.4
		c0-5.1,3.7-9.7,9.4-10c8-0.3,15.9,0,23.9-0.3C211.1,115.9,213.7,115.6,216.2,115.6z"/>
	<path class="st0" d="M251.5,184.2c-6.3-0.6-12.5-0.6-18.5,0c-15.1,0-30.2-0.3-45.3-0.3c-7.4,0-9.7-1.7-12.5-8.5
		c0.9-8,2.8-10.2,11.7-11.4c10.5,0,21.1,0.3,31.6,0.3c12.2,0,24.8-0.3,37-0.3c5.4,1.1,11.4-0.9,16.5,2c3.4,3.4,5.4,7.4,3.1,12.2
		c-2.3,4.8-6.5,6-11.4,5.7C259.8,183.9,255.8,184.2,251.5,184.2z"/>
	<path class="st0" d="M309.3,164.3c5.4,0,9.7,4.3,10,9.4c0,5.4-4.6,10-10,10c-5.4,0-9.7-4.6-9.7-9.7
		C299.9,168.6,304.2,164.3,309.3,164.3z"/>
</g>
</svg>
