<?xml version="1.0" encoding="utf-8"?>
<!-- Generator: Adobe Illustrator 23.0.0, SVG Export Plug-In . SVG Version: 6.00 Build 0)  -->
<svg version="1.1" id="Layer_1" xmlns="http://www.w3.org/2000/svg" xmlns:xlink="http://www.w3.org/1999/xlink" x="0px" y="0px"
	 viewBox="0 0 512 512" style="enable-background:new 0 0 512 512;" xml:space="preserve">
<style type="text/css">
	.st0{fill:#2C4E53;}
</style>
<path class="st0" d="M467.9,333.6c-2.9-1.7-6-2.9-9.1-3.8V268c0-5.5-4.5-10-10-10c-5.5,0-10,4.5-10,10v61.9
	c-9.4,2.6-17.9,8.7-23.1,17.8c-5.1,8.8-6.5,19.1-3.8,29c0,0,0,0.1,0,0.1l-132.3,76.4c-6.1-5.6-14.2-9.1-23.1-9.1
	c-8.9,0-17.1,3.5-23.1,9.1l-132.2-76.3c2.5-9.4,1.4-19.8-3.8-28.9c-5.1-8.8-13.3-15.1-23.1-17.8V186.8c0.3-0.1,0.6-0.1,0.9-0.2
	c10.9-2.9,20-9.9,25.7-19.7c6.1-10.6,7.1-22.8,3.8-33.6l128.8-74.4c6.1,5.6,14.2,9.1,23.1,9.1c8.9,0,17.1-3.5,23.1-9.1l128.6,74.3
	c-3.1,10.7-2.1,22.6,3.9,33c7.8,13.5,22.1,21.1,36.7,21.1c7.2,0,14.4-1.8,21.1-5.7c20.2-11.6,27.1-37.5,15.5-57.7
	c-11.7-20.2-37.5-27.1-57.7-15.5c-3.5,2.1-6.7,4.6-9.4,7.4L289.7,41.6c0.6-2.4,0.9-5,0.9-7.6c0-18.7-15.3-34-34-34
	c-18.7,0-34,15.3-34,34c0,2.6,0.3,5.1,0.9,7.6l-129,74.5c-2.6-2.6-5.6-5-9-6.9c-20.2-11.7-46.1-4.7-57.7,15.5
	c-5.6,9.8-7.1,21.2-4.2,32.1s9.9,20,19.7,25.7c3.5,2,7.3,3.5,11.1,4.5v143.3c-3.1,0.9-6.2,2.1-9.1,3.8c-18.3,10.5-24.5,34-14,52.2
	c5.1,8.8,13.3,15.2,23.2,17.8c3.3,0.9,6.6,1.3,10,1.3c6.6,0,13.2-1.7,19.1-5.1c2.9-1.7,5.5-3.7,7.8-6l132.2,76.3
	c-0.6,2.4-0.9,5-0.9,7.6c0,18.7,15.3,34,34,34c18.8,0,34-15.3,34-34c0-2.6-0.3-5.1-0.9-7.6L422,394c2.3,2.2,4.8,4.2,7.7,5.8
	c6,3.5,12.6,5.1,19,5.1c13.2,0,26.1-6.9,33.2-19.1c5.1-8.8,6.5-19.1,3.8-29S476.7,338.7,467.9,333.6z M437.7,125.8
	c3.5-2,7.3-3,11.1-3c7.7,0,15.2,4,19.3,11.1c6.1,10.6,2.5,24.3-8.1,30.4c-10.6,6.1-24.3,2.5-30.4-8.1
	C423.4,145.6,427,131.9,437.7,125.8z M256.5,20c7.7,0,14,6.3,14,14s-6.3,14-14,14c-7.7,0-14-6.3-14-14S248.8,20,256.5,20z
	 M42.8,151.5c-1.5-5.7-0.7-11.7,2.2-16.9c4.1-7.1,11.6-11.1,19.3-11.1c3.8,0,7.6,1,11.1,3c10.6,6.1,14.3,19.8,8.1,30.4
	c-3,5.1-7.8,8.8-13.5,10.4c-5.7,1.5-11.7,0.8-16.9-2.2C48,162,44.3,157.2,42.8,151.5z M73.4,382.8c-4.2,2.4-9.1,3.1-13.8,1.8
	c-4.7-1.3-8.6-4.3-11.1-8.5c-2.4-4.2-3.1-9.1-1.8-13.8c1.3-4.7,4.3-8.6,8.5-11.1c8.7-5,19.9-2,24.9,6.7
	C85.1,366.6,82.1,377.8,73.4,382.8z M256.5,492c-7.7,0-14-6.3-14-14s6.3-14,14-14c7.7,0,14,6.3,14,14S264.3,492,256.5,492z
	 M464.6,375.8c-5,8.7-16.2,11.7-24.9,6.7c-8.7-5-11.7-16.2-6.7-24.9c2.4-4.2,6.4-7.2,11.1-8.5c1.6-0.4,3.2-0.6,4.7-0.6
	c3.2,0,6.3,0.8,9.1,2.4c4.2,2.4,7.2,6.4,8.5,11.1C467.7,366.7,467,371.6,464.6,375.8z"/>
<path class="st0" d="M190.7,326c-2.6,0-5.2,1.1-7.1,2.9c-1.9,1.9-2.9,4.4-2.9,7.1c0,2.6,1.1,5.2,2.9,7.1c1.9,1.9,4.4,2.9,7.1,2.9
	c2.6,0,5.2-1.1,7.1-2.9c1.9-1.9,2.9-4.4,2.9-7.1c0-2.6-1.1-5.2-2.9-7.1C195.9,327.1,193.3,326,190.7,326z"/>
<path class="st0" d="M226.8,326c-2.6,0-5.2,1.1-7.1,2.9c-1.9,1.9-2.9,4.4-2.9,7.1c0,2.6,1.1,5.2,2.9,7.1s4.4,2.9,7.1,2.9
	s5.2-1.1,7.1-2.9c1.9-1.9,2.9-4.4,2.9-7.1c0-2.6-1.1-5.2-2.9-7.1C232,327.1,229.4,326,226.8,326z"/>
<path class="st0" d="M323.1,326h-48.2c-5.5,0-10,4.5-10,10c0,5.5,4.5,10,10,10h48.2c5.5,0,10-4.5,10-10
	C333.1,330.5,328.6,326,323.1,326z"/>
<path class="st0" d="M372.6,156c0-16.5-13.5-30-30-30h-172c-16.5,0-30,13.5-30,30v40c0,7.7,2.9,14.7,7.7,20
	c-4.8,5.3-7.7,12.3-7.7,20v40c0,7.7,2.9,14.7,7.7,20c-4.8,5.3-7.7,12.3-7.7,20v40c0,16.5,13.5,30,30,30h172c16.5,0,30-13.5,30-30
	v-40c0-7.7-2.9-14.7-7.7-20c4.8-5.3,7.7-12.3,7.7-20v-40c0-7.7-2.9-14.7-7.7-20c4.8-5.3,7.7-12.3,7.7-20V156z M160.6,156
	c0-5.5,4.5-10,10-10h172c5.5,0,10,4.5,10,10v40c0,5.5-4.5,10-10,10h-172c-5.5,0-10-4.5-10-10V156z M352.6,236v40c0,5.5-4.5,10-10,10
	h-172c-5.5,0-10-4.5-10-10v-40c0-5.5,4.5-10,10-10h172C348.1,226,352.6,230.5,352.6,236z M352.6,356c0,5.5-4.5,10-10,10h-172
	c-5.5,0-10-4.5-10-10v-40c0-5.5,4.5-10,10-10h172c5.5,0,10,4.5,10,10V356z"/>
<path class="st0" d="M190.7,186c2.6,0,5.2-1.1,7.1-2.9c1.9-1.9,2.9-4.4,2.9-7.1c0-2.6-1.1-5.2-2.9-7.1c-1.9-1.9-4.4-2.9-7.1-2.9
	c-2.6,0-5.2,1.1-7.1,2.9c-1.9,1.9-2.9,4.4-2.9,7.1c0,2.6,1.1,5.2,2.9,7.1C185.5,184.9,188.1,186,190.7,186z"/>
<path class="st0" d="M226.8,186c2.6,0,5.2-1.1,7.1-2.9c1.9-1.9,2.9-4.4,2.9-7.1c0-2.6-1.1-5.2-2.9-7.1c-1.9-1.9-4.4-2.9-7.1-2.9
	c-2.6,0-5.2,1.1-7.1,2.9c-1.9,1.9-2.9,4.4-2.9,7.1c0,2.6,1.1,5.2,2.9,7.1C221.6,184.9,224.2,186,226.8,186z"/>
<path class="st0" d="M274.9,186h48.2c5.5,0,10-4.5,10-10c0-5.5-4.5-10-10-10h-48.2c-5.5,0-10,4.5-10,10
	C264.9,181.5,269.4,186,274.9,186z"/>
<path class="st0" d="M190.7,266c2.6,0,5.2-1.1,7.1-2.9c1.9-1.9,2.9-4.4,2.9-7.1c0-2.6-1.1-5.2-2.9-7.1c-1.9-1.9-4.4-2.9-7.1-2.9
	c-2.6,0-5.2,1.1-7.1,2.9c-1.9,1.9-2.9,4.4-2.9,7.1c0,2.6,1.1,5.2,2.9,7.1C185.5,264.9,188,266,190.7,266z"/>
<path class="st0" d="M226.8,266c2.6,0,5.2-1.1,7.1-2.9c1.9-1.9,2.9-4.4,2.9-7.1c0-2.6-1.1-5.2-2.9-7.1c-1.9-1.9-4.4-2.9-7.1-2.9
	c-2.6,0-5.2,1.1-7.1,2.9c-1.9,1.9-2.9,4.4-2.9,7.1c0,2.6,1.1,5.2,2.9,7.1C221.6,264.9,224.2,266,226.8,266z"/>
<path class="st0" d="M274.9,266h48.2c5.5,0,10-4.5,10-10c0-5.5-4.5-10-10-10h-48.2c-5.5,0-10,4.5-10,10
	C264.9,261.5,269.4,266,274.9,266z"/>
<path class="st0" d="M441.7,216.3c-1.9,1.9-2.9,4.4-2.9,7.1c0,2.6,1.1,5.2,2.9,7.1c1.9,1.9,4.4,2.9,7.1,2.9c2.6,0,5.2-1.1,7.1-2.9
	c1.9-1.9,2.9-4.4,2.9-7.1c0-2.6-1.1-5.2-2.9-7.1c-1.9-1.9-4.4-2.9-7.1-2.9C446.2,213.4,443.6,214.4,441.7,216.3z"/>
</svg>
