<?xml version="1.0" encoding="utf-8"?>
<!-- Generator: Adobe Illustrator 23.0.0, SVG Export Plug-In . SVG Version: 6.00 Build 0)  -->
<svg version="1.1" id="Layer_1" xmlns="http://www.w3.org/2000/svg" xmlns:xlink="http://www.w3.org/1999/xlink" x="0px" y="0px"
	 viewBox="0 0 511 511" style="enable-background:new 0 0 511 511;" xml:space="preserve">
<style type="text/css">
	.st0{fill:#223D41;}
</style>
<path class="st0" d="M467.6,131.7h-4.4c-2.6-22-20.3-39.4-42.4-41.5c-2.5-23.7-22.6-42.2-47-42.2H72.2C31.8,47.9-1,80.7-1,121.1
	v211.5c0,24.5,18.8,44.7,42.7,47.1c2.5,23.4,22.2,41.8,46.2,42.2c0.1,4.2,0.7,8.2,1.9,12c5.4,17.3,21.5,29.8,40.5,29.8h337.3
	c23.4,0,42.4-19,42.4-42.4V174.1C510,150.7,491,131.7,467.6,131.7z M490,174.1v163.4l-43.4-32.8c-11.9-9-27.9-9.1-39.9-0.3l-54.9,40
	l-104.7-108c-12.5-12.9-32.8-13.7-46.2-1.8l-93,82V174.1c0-12.4,10.1-22.5,22.5-22.5h337.3C480,151.6,490,161.7,490,174.1z
	 M490,421.2c0,12.4-10.1,22.5-22.5,22.5H130.3c-10.1,0-18.6-6.7-21.5-15.8c-0.7-2.1-1-4.4-1-6.7v-78L214,249.6
	c5.4-4.8,13.6-4.5,18.7,0.7L280,299c0,0,0,0,0,0l94.1,97c2,2,4.6,3,7.2,3c2.5,0,5-0.9,6.9-2.8c4-3.8,4.1-10.2,0.2-14.1l-22.6-23.3
	l52.6-38.4c4.9-3.5,11.3-3.5,16.1,0.1l55.4,41.9V421.2z M61.4,374.6V138.9c0-1,0.1-2,0.2-3c1.5-14.6,13.9-26.1,28.9-26.1h122.1
	c5.5,0,10-4.5,10-10c0-5.5-4.5-10-10-10H90.5c-27,0-49,22-49,49v220.5C28.7,357.2,19,346,19,332.6V121.1c0-29.4,23.9-53.2,53.2-53.2
	h301.6c13.2,0,24.3,9.5,26.8,22H292.4c-5.5,0-10,4.5-10,10c0,5.5,4.5,10,10,10h118.7h0h5.1c13.2,0,24.2,9.4,26.7,21.8H130.3
	c-23.4,0-42.4,19-42.4,42.4v164.7v0v63.1C73.2,401.5,61.4,389.4,61.4,374.6z"/>
<path class="st0" d="M386.8,192.2c-23.6,0-42.7,19.2-42.7,42.7c0,23.6,19.2,42.7,42.7,42.7c23.5,0,42.7-19.2,42.7-42.7
	C429.5,211.4,410.3,192.2,386.8,192.2z M386.8,257.7c-12.5,0-22.8-10.2-22.8-22.7c0-12.5,10.2-22.8,22.8-22.8
	c12.5,0,22.7,10.2,22.7,22.8C409.5,247.5,399.3,257.7,386.8,257.7z"/>
<path class="st0" d="M243.3,103.7c0.2,0.6,0.6,1.2,0.9,1.7c0.4,0.5,0.8,1.1,1.2,1.5c0.5,0.5,1,0.9,1.5,1.2c0.5,0.4,1.1,0.7,1.7,0.9
	c0.6,0.2,1.2,0.4,1.9,0.6c0.6,0.1,1.3,0.2,1.9,0.2c0.7,0,1.3-0.1,2-0.2c0.6-0.1,1.3-0.3,1.9-0.6c0.6-0.2,1.2-0.6,1.7-0.9
	c0.5-0.4,1.1-0.8,1.5-1.2c0.5-0.5,0.9-1,1.2-1.5c0.4-0.5,0.7-1.1,0.9-1.7c0.2-0.6,0.4-1.2,0.6-1.9c0.1-0.7,0.2-1.3,0.2-2
	c0-0.7-0.1-1.3-0.2-1.9c-0.1-0.6-0.3-1.3-0.6-1.9c-0.2-0.6-0.6-1.2-0.9-1.7c-0.4-0.5-0.8-1.1-1.2-1.5c-0.5-0.5-1-0.9-1.5-1.2
	c-0.5-0.4-1.1-0.7-1.7-0.9c-0.6-0.2-1.2-0.4-1.9-0.6c-1.3-0.3-2.6-0.3-3.9,0c-0.6,0.1-1.3,0.3-1.9,0.6c-0.6,0.2-1.2,0.6-1.7,0.9
	c-0.5,0.4-1.1,0.8-1.5,1.2s-0.9,1-1.2,1.5c-0.4,0.5-0.7,1.1-0.9,1.7c-0.2,0.6-0.4,1.2-0.6,1.9c-0.1,0.6-0.2,1.3-0.2,1.9
	c0,0.6,0.1,1.3,0.2,2C242.8,102.5,243,103.1,243.3,103.7z"/>
</svg>
