<svg id="Layer_1" data-name="Layer 1" xmlns="http://www.w3.org/2000/svg" viewBox="0 0 530.16 289.92"><defs><style>.cls-1{fill:#fff;}</style></defs><title>userCount</title><path class="cls-1" d="M543,365.19c-2.22,7.23-7.37,9.43-14.59,9.4-44.18-.17-88.31-.09-132.46-.09h-6.24c.44,4.77.92,9.14,1.24,13.51.34,4.65.65,9.3.78,13.95.3,10.17-3.34,13.94-13.37,14H178.63c-11.48,0-14.8-3.41-14.45-14.94.13-4.31.39-8.61.72-12.88s.84-8.56,1.34-13.58h-6.3c-44.17,0-88.35-.08-132.46.09-7.22,0-12.37-2.18-14.58-9.42V341.37c2-10.12,3.34-20.37,6.17-30.22,8.71-30.22,25-55,52.66-71.42.27-.15.43-.49,1-1.17C54.77,224.45,45.65,206,47.35,183c1.26-17.11,9-31.29,22.09-42.45,25.69-21.85,64.22-18.71,86.84,7.22,21.5,24.64,21.66,65.5-10.75,91,11.58,6.63,22.09,14.51,29.85,25.19s14.16,21.87,21.21,32.91c10.68-14.73,24.4-27.88,42.33-37.17-22.77-16.2-34.35-37.66-33.18-65.06.92-20.44,9.66-37.42,25-51,29.86-26.41,76.33-22.73,102.72,8.44s22.69,80.42-16.34,107.55a122.82,122.82,0,0,1,42.22,37.26c7-11.05,13.49-22.37,21.16-32.88,7.75-10.66,18.16-18.7,29.94-25.15-33.5-26.34-32.21-69.66-8-94.19a62.14,62.14,0,0,1,87.88-.68c.38.37.76.75,1.13,1.14,23.79,24.57,24.93,67.57-8.43,93.68,2.53,1.64,5,3.11,7.36,4.76,26.13,18.41,41.06,44.08,48.44,74.55,1.84,7.64,2.85,15.5,4.24,23.26ZM371.06,395c-1.09-8.17-1.79-15.73-3.17-23.16-5.69-30.69-17.38-58.44-40.73-80.07-10.91-10.13-23.55-17.11-38.86-19.67v48c0,8-3.9,12.88-10.2,13s-10.46-4.9-10.49-13.23V272A72.29,72.29,0,0,0,232,288.63c-20.8,17.55-32.55,40.64-40,66.26a161.84,161.84,0,0,0-6.7,40.09Zm65.3-143.83c-4.08,1.37-7.8,2.22-11.16,3.83-28.12,13.51-42.63,37.41-50.17,66.49-.38,1.45.33,3.31.86,4.87,2.64,7.64,5.67,15.15,8,22.89,1.12,3.75,2.86,4.6,6.51,4.6,42.41-.11,84.82-.05,127.23-.06,1.49,0,3-.19,4.61-.3,0-1.43.06-2.45,0-3.47-.31-4.29-.44-8.62-1-12.88-3.77-27.61-14-52.15-35.34-71-8.17-7.21-17.48-12.46-28.76-14.65,0,10,.15,19.47,0,28.94-.13,7.08-5.31,11.87-11.47,11-5.47-.7-9.08-5-9.2-11.33-.16-9.39,0-18.86,0-29ZM33.94,353.8c44.86,0,89.35,0,133.83-.14,1.24,0,3.08-1.8,3.6-3.16,3.15-8.19,6.07-16.46,8.87-24.77a10.11,10.11,0,0,0,.35-5.42C175.5,299.94,166,282,150.32,267.8c-8.69-7.9-18.58-13.89-30.78-16.29v9.35c0,6.9.2,13.81-.14,20.7a10.24,10.24,0,0,1-10,10c-5.43.17-9.93-4-10.51-10a54,54,0,0,1-.11-5.69V251.71C59.44,259.09,33.08,309.24,33.94,353.8ZM329.69,198.56c0-28.12-23.58-51.79-51.68-51.82s-51.78,23.6-51.81,51.67,23.57,51.8,51.66,51.84S329.67,226.61,329.69,198.56ZM109,146.76c-22.49.17-41.14,18.9-41.17,41.32,0,22.63,19,41.62,41.57,41.42s41.13-18.92,41.18-41.32C150.61,165.59,131.54,146.61,109,146.76Zm379.1,41.17c-.18-22.49-18.91-41.13-41.33-41.17-22.61,0-41.61,19-41.42,41.59s18.94,41.13,41.34,41.17c22.61,0,41.6-19,41.41-41.59Z" transform="translate(-12.9 -126)"/><path class="cls-1" d="M288.23,364.26a10.28,10.28,0,1,1-10.18-10.38h.15A10.55,10.55,0,0,1,288.23,364.26Z" transform="translate(-12.9 -126)"/><path class="cls-1" d="M457,322.85a10.27,10.27,0,1,1-10.15-10.39h0A10.62,10.62,0,0,1,457,322.85Z" transform="translate(-12.9 -126)"/><path class="cls-1" d="M119.46,322.8a10.27,10.27,0,1,1-10.22-10.34A10.59,10.59,0,0,1,119.46,322.8Z" transform="translate(-12.9 -126)"/></svg>