<?xml version="1.0" encoding="utf-8"?>
<!-- Generator: Adobe Illustrator 23.0.0, SVG Export Plug-In . SVG Version: 6.00 Build 0)  -->
<svg version="1.1" id="Layer_1" xmlns="http://www.w3.org/2000/svg" xmlns:xlink="http://www.w3.org/1999/xlink" x="0px" y="0px"
	 viewBox="0 0 511 511" style="enable-background:new 0 0 511 511;" xml:space="preserve">
<style type="text/css">
	.st0{fill:#FFFFFF;}
</style>
<path class="st0" d="M198.6,141.1c-5.5,0-10,4.5-10,10v35.6h-35.6c-5.5,0-10,4.5-10,10s4.5,10,10,10h35.6v35.6c0,5.5,4.5,10,10,10
	c5.5,0,10-4.5,10-10v-35.6h35.6c5.5,0,10-4.5,10-10s-4.5-10-10-10h-35.6v-35.6C208.6,145.5,204.1,141.1,198.6,141.1z"/>
<path class="st0" d="M111.9,282.1c-3.9-3.9-10.2-4-14.1-0.1c-3.9,3.9-4,10.2-0.1,14.1l0.7,0.8c1.9,1.9,4.5,2.9,7.1,2.9
	s5.1-1,7.1-2.9c3.9-3.9,3.9-10.2,0-14.1L111.9,282.1z"/>
<path class="st0" d="M298.8,96.4c-55.3-55.3-145.2-55.3-200.4,0C54.8,140,44.4,206.1,72.3,260.9c2.5,4.9,8.5,6.9,13.4,4.4
	c4.9-2.5,6.9-8.5,4.4-13.4c-24-47.1-15-103.9,22.5-141.3C160,63,237.2,63,284.7,110.5c23,23,35.7,53.6,35.7,86.1
	c0,32.5-12.7,63.1-35.7,86.1c-36,36-91.2,45.8-137.4,24.4c-5-2.3-10.9-0.2-13.3,4.8c-2.3,5-0.2,10.9,4.8,13.3
	c19,8.8,39.3,13.1,59.5,13.1c36.9,0,73.4-14.3,100.5-41.5c26.8-26.8,41.5-62.4,41.5-100.2S325.6,123.2,298.8,96.4z"/>
<path class="st0" d="M503.2,437.3L366.6,300.6c18.8-30.2,29.7-65.9,29.7-104C396.2,87.7,307.6-1,198.6-1S1,87.7,1,196.6
	s88.7,197.6,197.6,197.6c38.1,0,73.8-10.9,104-29.7l136.7,136.7c5.8,5.8,13.5,8.8,21.2,8.8c7.7,0,15.3-2.9,21.2-8.8l21.6-21.6
	C514.9,468,514.9,449,503.2,437.3z M21,196.6C21,98.7,100.7,19,198.6,19s177.7,79.7,177.7,177.7s-79.7,177.7-177.7,177.7
	S21,294.6,21,196.6z M355,317.3l22.1,22.1l-35.7,35.7L319.3,353C332.6,342.7,344.7,330.7,355,317.3z M489.1,465.5l-21.6,21.6
	c-3.9,3.9-10.2,3.9-14.1,0l-97.9-97.9l35.7-35.7l97.9,97.9C493,455.3,493,461.6,489.1,465.5z"/>
</svg>
